<svg width="362" height="55" viewBox="0 0 362 55" fill="none" xmlns="http://www.w3.org/2000/svg">
<path d="M349.49 42.6451C341.879 42.6451 336.979 37.5723 336.979 29.2072V29.1585C336.979 20.8665 341.954 15.7449 349.465 15.7449C357.001 15.7449 362 20.8176 362 29.1585V29.2072C362 37.5967 357.073 42.6451 349.49 42.6451ZM349.514 37.743C353.342 37.743 355.807 34.6214 355.807 29.2072V29.1585C355.807 23.7687 353.318 20.6713 349.465 20.6713C345.686 20.6713 343.173 23.793 343.173 29.1585V29.2072C343.173 34.6458 345.634 37.743 349.514 37.743Z" fill="white"/>
<path d="M326.455 42.1329V20.9638H322.919V16.2812H326.455V13.818C326.455 8.76957 328.844 6.42843 334.455 6.42843C335.65 6.42843 336.941 6.52587 337.698 6.67227V10.9158C337.209 10.8427 336.528 10.7939 335.87 10.7939C333.502 10.7939 332.404 11.8912 332.404 13.9887V16.2812H337.602V20.9638H332.528V42.1329H326.455Z" fill="white"/>
<path d="M298.368 42.1332V16.2815H304.44V20.3299H304.561C305.903 17.5496 308.537 15.7449 312.464 15.7449C318.148 15.7449 321.391 19.4032 321.391 25.4026V42.1332H315.318V26.6221C315.318 22.9394 313.611 20.8665 310.147 20.8665C306.66 20.8665 304.44 23.4028 304.44 27.1343V42.1332H298.368Z" fill="white"/>
<path d="M291.672 12.5745C289.77 12.5745 288.283 11.0624 288.283 9.25771C288.283 7.40427 289.77 5.91648 291.672 5.91648C293.575 5.91648 295.038 7.40427 295.038 9.25771C295.038 11.0624 293.575 12.5745 291.672 12.5745ZM288.624 42.1332V16.2815H294.697V42.1332H288.624Z" fill="white"/>
<path d="M281.684 42.5226C279.709 42.5226 278.148 40.9618 278.148 38.9865C278.148 37.0353 279.709 35.4745 281.684 35.4745C283.66 35.4745 285.196 37.0353 285.196 38.9865C285.196 40.9618 283.66 42.5226 281.684 42.5226Z" fill="white"/>
<path d="M251.99 42.1332V16.2815H258.064V20.3299H258.186C259.527 17.5496 262.161 15.7449 266.087 15.7449C271.769 15.7449 275.013 19.4032 275.013 25.4026V42.1332H268.941V26.6221C268.941 22.9394 267.233 20.8665 263.771 20.8665C260.283 20.8665 258.064 23.4028 258.064 27.1343V42.1332H251.99Z" fill="white"/>
<path d="M234.585 42.5721C229.415 42.5721 225.928 39.3772 225.928 34.7677V34.7191C225.928 30.134 229.489 27.3781 235.756 26.9878L242.513 26.5733V24.793C242.513 22.1833 240.805 20.5981 237.732 20.5981C234.854 20.5981 233.098 21.9395 232.708 23.8418L232.659 24.0613H227.026L227.05 23.7687C227.415 19.1837 231.391 15.7449 237.951 15.7449C244.415 15.7449 248.585 19.1592 248.585 24.354V42.1332H242.513V38.1578H242.366C240.878 40.865 238.001 42.5721 234.585 42.5721ZM231.977 34.5239C231.977 36.6456 233.733 37.9382 236.391 37.9382C239.879 37.9382 242.513 35.6214 242.513 32.5483V30.5974L236.61 30.9631C233.611 31.1582 231.977 32.4509 231.977 34.4995V34.5239Z" fill="white"/>
<path d="M217.21 42.1329V6.94066H223.283V42.1329H217.21Z" fill="white"/>
<path d="M199.44 42.6451C193.758 42.6451 190.513 38.9868 190.513 32.9873V16.2813H196.587V31.7923C196.587 35.4504 198.293 37.5234 201.757 37.5234C205.244 37.5234 207.463 35.0114 207.463 31.2557V16.2813H213.537V42.1329H207.463V38.0845H207.341C206 40.8402 203.342 42.6451 199.44 42.6451Z" fill="white"/>
<path d="M174.965 51.1811C168.111 51.1811 163.794 48.0594 163.062 44.0111L163.014 43.7914H168.989L169.062 43.9866C169.721 45.4741 171.794 46.596 174.965 46.596C178.916 46.596 181.085 44.4985 181.085 41.2065V37.4748H180.964C179.525 40.2309 176.599 41.9869 172.891 41.9869C166.404 41.9869 162.234 37.0115 162.234 28.9633V28.939C162.234 20.7689 166.453 15.7449 172.989 15.7449C176.647 15.7449 179.477 17.6959 180.94 20.6713H181.085V16.2815H187.159V41.4013C187.159 47.2546 182.452 51.1811 174.965 51.1811ZM174.793 37.3041C178.575 37.3041 181.111 34.1091 181.111 29.0853V29.0609C181.111 24.0613 178.549 20.8665 174.793 20.8665C170.892 20.8665 168.428 24.0125 168.428 29.0365V29.0609C168.428 34.158 170.892 37.3041 174.793 37.3041Z" fill="white"/>
<path d="M148.61 42.1332V16.2815H154.684V20.7445H154.805C155.61 17.6228 157.757 15.7449 160.732 15.7449C161.488 15.7449 162.195 15.8668 162.658 15.9888V21.4761C162.147 21.281 161.219 21.1347 160.195 21.1347C156.756 21.1347 154.684 23.3052 154.684 27.1343V42.1332H148.61Z" fill="white"/>
<path d="M131.209 42.5721C126.039 42.5721 122.552 39.3772 122.552 34.7677V34.7191C122.552 30.134 126.112 27.3781 132.38 26.9878L139.135 26.5733V24.793C139.135 22.1833 137.428 20.5981 134.355 20.5981C131.478 20.5981 129.722 21.9395 129.331 23.8418L129.283 24.0613H123.65L123.674 23.7687C124.039 19.1837 128.014 15.7449 134.575 15.7449C141.038 15.7449 145.208 19.1592 145.208 24.354V42.1332H139.135V38.1578H138.989C137.502 40.865 134.623 42.5721 131.209 42.5721ZM128.6 34.5239C128.6 36.6456 130.356 37.9382 133.014 37.9382C136.502 37.9382 139.135 35.6214 139.135 32.5483V30.5974L133.234 30.9631C130.233 31.1582 128.6 32.4509 128.6 34.4995V34.5239Z" fill="white"/>
<path d="M83.0291 42.1332V16.2815H89.1019V20.4274H89.2238C90.3212 17.5983 92.9795 15.7449 96.3944 15.7449C100.003 15.7449 102.613 17.6472 103.564 20.964H103.71C104.954 17.7447 108.027 15.7449 111.758 15.7449C116.856 15.7449 120.197 19.208 120.197 24.3783V42.1332H114.125V25.8905C114.125 22.6955 112.466 20.8665 109.491 20.8665C106.564 20.8665 104.564 23.037 104.564 26.1587V42.1332H98.6617V25.5734C98.6617 22.6712 96.906 20.8665 94.077 20.8665C91.1505 20.8665 89.1019 23.1589 89.1019 26.305V42.1332H83.0291Z" fill="white"/>
<path d="M2.87098 50.5265C0.0112811 48.7394 -0.858326 44.9728 0.928582 42.1133L25.4498 2.87098C27.2367 0.0112822 31.0035 -0.858326 33.863 0.928581C36.7228 2.71549 37.5925 6.48224 35.8054 9.34195L11.2844 48.584C9.49743 51.4438 5.73067 52.3132 2.87098 50.5265Z" fill="#FF1E1E"/>
<path d="M24.4044 50.5265C21.5447 48.7394 20.6751 44.9728 22.462 42.1133L46.9832 2.87098C48.7699 0.0112822 52.5369 -0.858326 55.3967 0.928581C58.2562 2.71549 59.1259 6.48224 57.3391 9.34195L32.8178 48.584C31.0307 51.4438 27.264 52.3132 24.4044 50.5265Z" fill="#FF1E1E"/>
<path d="M45.9867 50.5262C43.1269 48.7391 42.2575 44.9725 44.0443 42.1127L52.8918 27.9536C54.6789 25.094 58.4455 24.2244 61.305 26.0113C64.1648 27.7982 65.0345 31.5649 63.2475 34.4247L54.3999 48.5837C52.6131 51.4432 48.8462 52.3129 45.9867 50.5262Z" fill="#FF1E1E"/>
</svg>
