<svg width="43" height="24" viewBox="0 0 43 24" fill="none" xmlns="http://www.w3.org/2000/svg">
<path d="M0 2C0 0.895431 0.895431 0 2 0H20C21.1046 0 22 0.895431 22 2C22 3.10457 21.1046 4 20 4H2C0.89543 4 0 3.10457 0 2Z" fill="white"/>
<path d="M21 22C21 20.8954 21.8954 20 23 20H41C42.1046 20 43 20.8954 43 22C43 23.1046 42.1046 24 41 24H23C21.8954 24 21 23.1046 21 22Z" fill="white"/>
<path d="M0 12C0 10.8954 0.895431 10 2 10H41C42.1046 10 43 10.8954 43 12C43 13.1046 42.1046 14 41 14H2C0.895432 14 0 13.1046 0 12Z" fill="white"/>
</svg>
