<svg width="25" height="24" viewBox="0 0 25 24" fill="none" xmlns="http://www.w3.org/2000/svg">
<rect x="0.14209" width="24" height="24" rx="4" fill="white"/>
<path d="M9.69203 15.15L18.167 6.675C18.367 6.475 18.6004 6.375 18.867 6.375C19.1337 6.375 19.367 6.475 19.567 6.675C19.767 6.875 19.867 7.11267 19.867 7.388C19.867 7.66333 19.767 7.90067 19.567 8.1L10.392 17.3C10.192 17.5 9.95869 17.6 9.69203 17.6C9.42536 17.6 9.19203 17.5 8.99203 17.3L4.69203 13C4.49203 12.8 4.39603 12.5627 4.40403 12.288C4.41203 12.0133 4.51636 11.7757 4.71703 11.575C4.91769 11.3743 5.15536 11.2743 5.43003 11.275C5.70469 11.2757 5.94203 11.3757 6.14203 11.575L9.69203 15.15Z" fill="black"/>
</svg>
