<svg width="22" height="22" viewBox="0 0 22 22" fill="none" xmlns="http://www.w3.org/2000/svg">
<path d="M9.89043 1.41489C10.2397 0.340028 11.7603 0.34003 12.1096 1.41489L13.8813 6.86762C14.0375 7.34831 14.4854 7.67376 14.9908 7.67376H20.7242C21.8543 7.67376 22.3242 9.11998 21.4099 9.78428L16.7715 13.1543C16.3626 13.4513 16.1915 13.9779 16.3477 14.4586L18.1194 19.9113C18.4687 20.9862 17.2384 21.88 16.3241 21.2157L11.6857 17.8458C11.2768 17.5487 10.7232 17.5487 10.3143 17.8458L5.67589 21.2157C4.76155 21.88 3.53133 20.9862 3.88057 19.9113L5.65227 14.4586C5.80846 13.9779 5.63735 13.4513 5.22845 13.1543L0.590088 9.78428C-0.324244 9.11998 0.145662 7.67376 1.27584 7.67376H7.00917C7.5146 7.67376 7.96255 7.34831 8.11874 6.86761L9.89043 1.41489Z" fill="#FF1E1E"/>
</svg>
